<svg width="16" height="17" viewBox="0 0 16 17" fill="none" xmlns="http://www.w3.org/2000/svg">
<path fill-rule="evenodd" clip-rule="evenodd" d="M1 4.38222C1 2.22038 1.02315 1.5 3.88222 1.5C6.74129 1.5 6.76444 2.22038 6.76444 4.38222C6.76444 6.54406 6.77356 7.26444 3.88222 7.26444C0.990882 7.26444 1 6.54406 1 4.38222Z" stroke="#777676" stroke-width="1.5" stroke-linecap="round" stroke-linejoin="round"/>
<path fill-rule="evenodd" clip-rule="evenodd" d="M9.23486 4.38222C9.23486 2.22038 9.25801 1.5 12.1171 1.5C14.9762 1.5 14.9993 2.22038 14.9993 4.38222C14.9993 6.54406 15.0084 7.26444 12.1171 7.26444C9.22574 7.26444 9.23486 6.54406 9.23486 4.38222Z" stroke="#777676" stroke-width="1.5" stroke-linecap="round" stroke-linejoin="round"/>
<path fill-rule="evenodd" clip-rule="evenodd" d="M1 12.6185C1 10.4567 1.02315 9.73633 3.88222 9.73633C6.74129 9.73633 6.76444 10.4567 6.76444 12.6185C6.76444 14.7804 6.77356 15.5008 3.88222 15.5008C0.990882 15.5008 1 14.7804 1 12.6185Z" stroke="#777676" stroke-width="1.5" stroke-linecap="round" stroke-linejoin="round"/>
<path fill-rule="evenodd" clip-rule="evenodd" d="M9.23486 12.6185C9.23486 10.4567 9.25801 9.73633 12.1171 9.73633C14.9762 9.73633 14.9993 10.4567 14.9993 12.6185C14.9993 14.7804 15.0084 15.5008 12.1171 15.5008C9.22574 15.5008 9.23486 14.7804 9.23486 12.6185Z" stroke="#777676" stroke-width="1.5" stroke-linecap="round" stroke-linejoin="round"/>
</svg>
