<svg width="16" height="16" viewBox="0 0 16 16" fill="none" xmlns="http://www.w3.org/2000/svg">
<path d="M1.75 3.75C1.75 3.55109 1.82902 3.36032 1.96967 3.21967C2.11032 3.07902 2.30109 3 2.5 3H13.5C13.6989 3 13.8897 3.07902 14.0303 3.21967C14.171 3.36032 14.25 3.55109 14.25 3.75C14.25 3.94891 14.171 4.13968 14.0303 4.28033C13.8897 4.42098 13.6989 4.5 13.5 4.5H2.5C2.30109 4.5 2.11032 4.42098 1.96967 4.28033C1.82902 4.13968 1.75 3.94891 1.75 3.75ZM3.75 7.75C3.75 7.55109 3.82902 7.36032 3.96967 7.21967C4.11032 7.07902 4.30109 7 4.5 7H11.5C11.6989 7 11.8897 7.07902 12.0303 7.21967C12.171 7.36032 12.25 7.55109 12.25 7.75C12.25 7.94891 12.171 8.13968 12.0303 8.28033C11.8897 8.42098 11.6989 8.5 11.5 8.5H4.5C4.30109 8.5 4.11032 8.42098 3.96967 8.28033C3.82902 8.13968 3.75 7.94891 3.75 7.75ZM5.75 11.75C5.75 11.5511 5.82902 11.3603 5.96967 11.2197C6.11032 11.079 6.30109 11 6.5 11H9.5C9.69891 11 9.88968 11.079 10.0303 11.2197C10.171 11.3603 10.25 11.5511 10.25 11.75C10.25 11.9489 10.171 12.1397 10.0303 12.2803C9.88968 12.421 9.69891 12.5 9.5 12.5H6.5C6.30109 12.5 6.11032 12.421 5.96967 12.2803C5.82902 12.1397 5.75 11.9489 5.75 11.75Z" fill="#212229"/>
</svg>
