<svg width="16" height="12" viewBox="0 0 16 12" fill="none" xmlns="http://www.w3.org/2000/svg">
<path d="M5.04038 9.54038C4.91848 9.66228 4.85 9.82761 4.85 10C4.85 10.1724 4.91848 10.3377 5.04038 10.4596C5.16228 10.5815 5.32761 10.65 5.5 10.65H14.5C14.6724 10.65 14.8377 10.5815 14.9596 10.4596C15.0815 10.3377 15.15 10.1724 15.15 10C15.15 9.82761 15.0815 9.66228 14.9596 9.54038C14.8377 9.41848 14.6724 9.35 14.5 9.35H5.5C5.32761 9.35 5.16228 9.41848 5.04038 9.54038ZM5.04038 5.54038C4.91848 5.66228 4.85 5.82761 4.85 6C4.85 6.17239 4.91848 6.33772 5.04038 6.45962C5.16228 6.58152 5.32761 6.65 5.5 6.65H14.5C14.6724 6.65 14.8377 6.58152 14.9596 6.45962C15.0815 6.33772 15.15 6.17239 15.15 6C15.15 5.82761 15.0815 5.66228 14.9596 5.54038C14.8377 5.41848 14.6724 5.35 14.5 5.35H5.5C5.32761 5.35 5.16228 5.41848 5.04038 5.54038ZM5.04038 1.54038C4.91848 1.66228 4.85 1.82761 4.85 2C4.85 2.17239 4.91848 2.33772 5.04038 2.45962C5.16228 2.58152 5.32761 2.65 5.5 2.65H14.5C14.6724 2.65 14.8377 2.58152 14.9596 2.45962C15.0815 2.33772 15.15 2.17239 15.15 2C15.15 1.82761 15.0815 1.66228 14.9596 1.54038C14.8377 1.41848 14.6724 1.35 14.5 1.35H5.5C5.32761 1.35 5.16228 1.41848 5.04038 1.54038ZM2 3.15C2.305 3.15 2.59751 3.02884 2.81317 2.81317C3.02884 2.59751 3.15 2.305 3.15 2C3.15 1.695 3.02884 1.40249 2.81317 1.18683C2.59751 0.97116 2.305 0.85 2 0.85C1.695 0.85 1.40249 0.97116 1.18683 1.18683C0.97116 1.40249 0.85 1.695 0.85 2C0.85 2.305 0.97116 2.59751 1.18683 2.81317C1.40249 3.02884 1.695 3.15 2 3.15ZM2 7.15C2.305 7.15 2.59751 7.02884 2.81317 6.81317C3.02884 6.59751 3.15 6.305 3.15 6C3.15 5.695 3.02884 5.40249 2.81317 5.18683C2.59751 4.97116 2.305 4.85 2 4.85C1.695 4.85 1.40249 4.97116 1.18683 5.18683C0.97116 5.40249 0.85 5.695 0.85 6C0.85 6.305 0.97116 6.59751 1.18683 6.81317C1.40249 7.02884 1.695 7.15 2 7.15ZM2 11.15C2.305 11.15 2.59751 11.0288 2.81317 10.8132C3.02884 10.5975 3.15 10.305 3.15 10C3.15 9.695 3.02884 9.40249 2.81317 9.18683C2.59751 8.97116 2.305 8.85 2 8.85C1.695 8.85 1.40249 8.97116 1.18683 9.18683C0.97116 9.40249 0.85 9.695 0.85 10C0.85 10.305 0.97116 10.5975 1.18683 10.8132C1.40249 11.0288 1.695 11.15 2 11.15Z" fill="#777676" stroke="#777676" stroke-width="0.3"/>
</svg>
