<svg width="22" height="24" viewBox="0 0 22 24" fill="none" xmlns="http://www.w3.org/2000/svg">
<path d="M11 22.6111L7.83333 19.5952H3.08333C2.66111 19.5952 2.29167 19.4403 1.975 19.1303C1.65833 18.8203 1.5 18.4727 1.5 18.0873V3.00794C1.5 2.60582 1.65833 2.25397 1.975 1.95238C2.29167 1.65079 2.66111 1.5 3.08333 1.5H18.9167C19.3213 1.5 19.6863 1.65079 20.0118 1.95238C20.3373 2.25397 20.5 2.60582 20.5 3.00794V18.0873C20.5 18.4727 20.3373 18.8203 20.0118 19.1303C19.6863 19.4403 19.3213 19.5952 18.9167 19.5952H14.1667L11 22.6111Z" stroke="white" stroke-width="1.5" stroke-linecap="round" stroke-linejoin="round"/>
<path d="M12.3696 12.3518L15.5 11.0474L12.3696 9.74309L11 6.76172L9.60598 9.74309L6.5 11.0474L9.60598 12.3518L11 15.3331L12.3696 12.3518Z" fill="white"/>
</svg>
