<svg width="26" height="20" viewBox="0 0 26 20" fill="none" xmlns="http://www.w3.org/2000/svg">
<path fill-rule="evenodd" clip-rule="evenodd" d="M20.1053 8.87018C21.7568 8.63814 23.0282 7.22224 23.0318 5.50682C23.0318 3.81626 21.7994 2.41456 20.1834 2.14938" fill="#644A03"/>
<path d="M20.1053 8.87018C21.7568 8.63814 23.0282 7.22224 23.0318 5.50682C23.0318 3.81626 21.7994 2.41456 20.1834 2.14938" stroke="#644A03" stroke-width="1.5" stroke-linecap="round" stroke-linejoin="round"/>
<path fill-rule="evenodd" clip-rule="evenodd" d="M22.2843 12.8406C23.8837 13.0798 25.0001 13.6397 25.0001 14.794C25.0001 15.5884 24.4745 16.1045 23.6244 16.4289" fill="#644A03"/>
<path d="M22.2843 12.8406C23.8837 13.0798 25.0001 13.6397 25.0001 14.794C25.0001 15.5884 24.4745 16.1045 23.6244 16.4289" stroke="#644A03" stroke-width="1.5" stroke-linecap="round" stroke-linejoin="round"/>
<path fill-rule="evenodd" clip-rule="evenodd" d="M13.0005 13.3291C9.19551 13.3291 5.9458 13.9056 5.9458 16.2082C5.9458 18.5097 9.17539 19.1028 13.0005 19.1028C16.8054 19.1028 20.0539 18.5322 20.0539 16.2283C20.0539 13.9245 16.8255 13.3291 13.0005 13.3291Z" fill="#FBBA07" stroke="#FBBA07" stroke-width="1.5" stroke-linecap="round" stroke-linejoin="round"/>
<path fill-rule="evenodd" clip-rule="evenodd" d="M13.0006 10.0424C15.4974 10.0424 17.5218 8.01913 17.5218 5.52118C17.5218 3.02441 15.4974 1 13.0006 1C10.5038 1 8.4794 3.02441 8.4794 5.52118C8.46993 8.00966 10.479 10.0341 12.9674 10.0424H13.0006Z" fill="#FBBA07" stroke="#FBBA07" stroke-width="1.5" stroke-linecap="round" stroke-linejoin="round"/>
<path fill-rule="evenodd" clip-rule="evenodd" d="M5.89502 8.87018C4.24234 8.63814 2.97206 7.22224 2.96851 5.50682C2.96851 3.81626 4.20091 2.41456 5.81688 2.14938" fill="#644A03"/>
<path d="M5.89502 8.87018C4.24234 8.63814 2.97206 7.22224 2.96851 5.50682C2.96851 3.81626 4.20091 2.41456 5.81688 2.14938" stroke="#644A03" stroke-width="1.5" stroke-linecap="round" stroke-linejoin="round"/>
<path fill-rule="evenodd" clip-rule="evenodd" d="M3.71579 12.8406C2.11638 13.0798 1 13.6397 1 14.794C1 15.5884 1.52564 16.1045 2.37565 16.4289" fill="#644A03"/>
<path d="M3.71579 12.8406C2.11638 13.0798 1 13.6397 1 14.794C1 15.5884 1.52564 16.1045 2.37565 16.4289" stroke="#644A03" stroke-width="1.5" stroke-linecap="round" stroke-linejoin="round"/>
</svg>
