<svg width="26" height="20" viewBox="0 0 26 20" fill="none" xmlns="http://www.w3.org/2000/svg">
<path d="M23.4636 18.7709H25.81V20H0V18.7709H2.34636V1.17319C2.34636 0.862045 2.46997 0.563641 2.68998 0.343627C2.90999 0.123613 3.2084 9.99083e-06 3.51955 9.99083e-06L14.6648 0C14.9759 0 15.2743 0.123603 15.4943 0.343617C15.7144 0.563631 15.838 0.862035 15.838 1.17318V18.7709H22V8.5H17.0111V7.0391H22.2905C22.6016 7.0391 22.9 7.1627 23.12 7.38272C23.34 7.60273 23.4636 7.90113 23.4636 8.21228V18.7709ZM4.10614 1.75977V18.7709H14.0782V1.75977H4.10614ZM7.03909 9.21228H11.7318V10.972H7.03909V9.21228ZM7.03909 4.69274H11.7318V6.4525H7.03909V4.69274Z" fill="white"/>
</svg>
