<svg width="19" height="21" viewBox="0 0 19 21" fill="none" xmlns="http://www.w3.org/2000/svg">
<path d="M10.5984 5.32181L10.7157 6.06257L10.5984 5.32181ZM9.09922 5.32181L8.9819 6.06257L9.09922 5.32181ZM16.2023 2.0727C16.4953 1.77992 16.4954 1.30504 16.2027 1.01204C15.9099 0.719046 15.435 0.718876 15.142 1.01166L16.2023 2.0727ZM4.34953 0.805642C4.05663 0.512755 3.58176 0.512765 3.28887 0.805665C2.99599 1.09856 2.996 1.57344 3.2889 1.86632L4.34953 0.805642ZM10.4811 4.58104C10.0622 4.64739 9.63544 4.64739 9.21655 4.58104L8.9819 6.06257C9.55626 6.15354 10.1414 6.15354 10.7157 6.06257L10.4811 4.58104ZM15.142 1.01166C13.9531 2.19973 13.0883 3.0511 12.3419 3.63895C11.6066 4.218 11.0462 4.49153 10.4811 4.58104L10.7157 6.06257C11.6317 5.9175 12.4285 5.48007 13.2699 4.81738C14.1002 4.16349 15.0318 3.24235 16.2023 2.0727L15.142 1.01166ZM3.2889 1.86632C4.52521 3.10259 5.49738 4.07327 6.35479 4.75952C7.22326 5.45461 8.03959 5.91333 8.9819 6.06257L9.21655 4.58104C8.63514 4.48896 8.05896 4.2022 7.29209 3.58842C6.51417 2.96581 5.60819 2.06424 4.34953 0.805642L3.2889 1.86632Z" fill="white"/>
<path d="M2.8502 19.1695L3.29103 18.5627L2.8502 19.1695ZM1.79013 18.1094L2.39689 17.6686L1.79013 18.1094ZM17.2099 18.1094L16.6031 17.6686L17.2099 18.1094ZM16.1498 19.1695L15.709 18.5627L16.1498 19.1695ZM16.1498 1.8331L15.709 2.43986L16.1498 1.8331ZM17.2099 2.89316L16.6031 3.334L17.2099 2.89316ZM2.8502 1.8331L3.29103 2.43986L2.8502 1.8331ZM1.79013 2.89316L2.39689 3.334L1.79013 2.89316ZM15.6721 1.54218L15.3344 2.21186L15.6721 1.54218ZM3.81921 1.33598L4.06384 2.04496L3.81921 1.33598ZM17.375 9.54297V11.4596H18.875V9.54297H17.375ZM1.625 11.4596V9.54297H0.125V11.4596H1.625ZM9.5 19.3346C7.68655 19.3346 6.3867 19.3336 5.38066 19.2246C4.38865 19.1171 3.77166 18.9119 3.29103 18.5627L2.40936 19.7763C3.1883 20.3422 4.09946 20.5946 5.21909 20.7159C6.32469 20.8357 7.71996 20.8346 9.5 20.8346V19.3346ZM0.125 11.4596C0.125 13.2397 0.123971 14.6349 0.243754 15.7405C0.365059 16.8602 0.61743 17.7713 1.18336 18.5503L2.39689 17.6686C2.0477 17.188 1.8425 16.571 1.73503 15.579C1.62603 14.5729 1.625 13.2731 1.625 11.4596H0.125ZM3.29103 18.5627C2.94792 18.3135 2.64618 18.0117 2.39689 17.6686L1.18336 18.5503C1.52517 19.0207 1.9389 19.4345 2.40936 19.7763L3.29103 18.5627ZM17.375 11.4596C17.375 13.2731 17.374 14.5729 17.265 15.579C17.1575 16.571 16.9523 17.188 16.6031 17.6686L17.8166 18.5503C18.3826 17.7713 18.6349 16.8602 18.7562 15.7405C18.876 14.6349 18.875 13.2397 18.875 11.4596H17.375ZM9.5 20.8346C11.28 20.8346 12.6753 20.8357 13.7809 20.7159C14.9005 20.5946 15.8117 20.3422 16.5906 19.7763L15.709 18.5627C15.2283 18.9119 14.6113 19.1171 13.6193 19.2246C12.6133 19.3336 11.3135 19.3346 9.5 19.3346V20.8346ZM16.6031 17.6686C16.3538 18.0117 16.0521 18.3135 15.709 18.5627L16.5906 19.7763C17.0611 19.4345 17.4748 19.0207 17.8166 18.5503L16.6031 17.6686ZM18.875 9.54297C18.875 7.76293 18.876 6.36765 18.7562 5.26206C18.6349 4.14243 18.3826 3.23127 17.8166 2.45233L16.6031 3.334C16.9523 3.81463 17.1575 4.43162 17.265 5.42363C17.374 6.42967 17.375 7.72952 17.375 9.54297H18.875ZM15.709 2.43986C16.0521 2.68915 16.3538 2.99089 16.6031 3.334L17.8166 2.45233C17.4748 1.98187 17.0611 1.56814 16.5906 1.22633L15.709 2.43986ZM1.625 9.54297C1.625 7.72952 1.62603 6.42967 1.73503 5.42363C1.8425 4.43162 2.0477 3.81463 2.39689 3.334L1.18336 2.45233C0.61743 3.23127 0.365059 4.14243 0.243754 5.26206C0.123971 6.36765 0.125 7.76293 0.125 9.54297H1.625ZM2.40936 1.22633C1.9389 1.56814 1.52517 1.98187 1.18336 2.45233L2.39689 3.334C2.64618 2.99089 2.94792 2.68915 3.29103 2.43986L2.40936 1.22633ZM9.5 1.66797C11.093 1.66797 12.2925 1.6685 13.2493 1.74369C14.2037 1.81869 14.843 1.96403 15.3344 2.21186L16.0098 0.872507C15.2634 0.496124 14.3983 0.329356 13.3668 0.248301C12.3379 0.16744 11.0703 0.167969 9.5 0.167969V1.66797ZM15.3344 2.21186C15.4675 2.27894 15.5914 2.35445 15.709 2.43986L16.5906 1.22633C16.4066 1.09261 16.2135 0.975227 16.0098 0.872507L15.3344 2.21186ZM9.5 0.167969C8.12387 0.167969 6.98243 0.167701 6.0337 0.22142C5.0857 0.275097 4.27698 0.384642 3.57458 0.626999L4.06384 2.04496C4.57292 1.86931 5.22085 1.76985 6.1185 1.71902C7.01542 1.66824 8.10864 1.66797 9.5 1.66797V0.167969ZM3.57458 0.626999C3.1497 0.773601 2.76443 0.968359 2.40936 1.22633L3.29103 2.43986C3.51501 2.27713 3.76555 2.14789 4.06384 2.04496L3.57458 0.626999Z" fill="white"/>
<path d="M6 11.5537L8.23333 13.787L12.7 9.00131" stroke="white" stroke-width="1.5" stroke-linecap="round" stroke-linejoin="round"/>
</svg>
