<svg width="23" height="22" viewBox="0 0 23 22" fill="none" xmlns="http://www.w3.org/2000/svg">
<g opacity="0.7">
<path d="M15.6849 21L19.0708 21C20.4731 21 21.6094 19.8541 21.6094 18.44L21.6094 15.0255C21.6094 13.6114 20.4731 12.4655 19.0708 12.4655L15.6849 12.4655C14.2826 12.4655 13.1464 13.6114 13.1464 15.0255L13.1464 18.44C13.1464 19.8541 14.2826 21 15.6849 21" stroke="white" stroke-width="1.5"/>
<path d="M10.0724 18.44L10.8224 18.44L10.0724 18.44ZM10.0724 15.0255L9.32238 15.0255L10.0724 15.0255ZM7.53386 9.53427L7.53386 8.78427L7.53386 9.53427ZM4.1479 9.53427L4.1479 10.2843L4.1479 9.53427ZM10.0724 6.97431L10.8224 6.97431L10.0724 6.97431ZM10.0724 3.55975L9.32238 3.55975L10.0724 3.55975ZM13.1464 6.97431L13.8964 6.97431L13.1464 6.97431ZM13.1464 3.55975L12.3964 3.55975L13.1464 3.55975ZM15.6849 0.999791L15.6849 0.249791L15.6849 0.999791ZM19.0708 0.999791L19.0708 1.74979L19.0708 0.999791ZM21.6094 3.55975L20.8594 3.55975L21.6094 3.55975ZM21.6094 6.97431L22.3594 6.97431L21.6094 6.97431ZM7.53386 21.75L4.1479 21.75L4.1479 20.25L7.53386 20.25L7.53386 21.75ZM10.8224 18.44C10.8224 20.2624 9.35627 21.75 7.53386 21.75L7.53386 20.25C8.51598 20.25 9.32238 19.4459 9.32238 18.44L10.8224 18.44ZM10.8224 15.0255L10.8224 18.44L9.32238 18.44L9.32238 15.0255L10.8224 15.0255ZM7.53386 11.7155C9.35627 11.7155 10.8224 13.2031 10.8224 15.0255L9.32238 15.0255C9.32238 14.0196 8.51598 13.2155 7.53386 13.2155L7.53386 11.7155ZM4.1479 11.7155L7.53386 11.7155L7.53386 13.2155L4.1479 13.2155L4.1479 11.7155ZM0.859374 15.0255C0.859374 13.2031 2.32548 11.7155 4.1479 11.7155L4.1479 13.2155C3.16578 13.2155 2.35937 14.0196 2.35937 15.0255L0.859374 15.0255ZM0.859375 18.44L0.859374 15.0255L2.35937 15.0255L2.35937 18.44L0.859375 18.44ZM4.1479 21.75C2.32548 21.75 0.859375 20.2624 0.859375 18.44L2.35937 18.44C2.35937 19.4459 3.16578 20.25 4.1479 20.25L4.1479 21.75ZM7.53386 10.2843L4.1479 10.2843L4.1479 8.78427L7.53386 8.78427L7.53386 10.2843ZM10.8224 6.97431C10.8224 8.79667 9.35627 10.2843 7.53386 10.2843L7.53386 8.78427C8.51598 8.78427 9.32238 7.98016 9.32238 6.97431L10.8224 6.97431ZM10.8224 3.55975L10.8224 6.97431L9.32238 6.97431L9.32238 3.55975L10.8224 3.55975ZM7.53386 0.249792C9.35645 0.249791 10.8224 1.73853 10.8224 3.55975L9.32238 3.55975C9.32238 2.55467 8.51579 1.74979 7.53386 1.74979L7.53386 0.249792ZM4.14789 0.249792L7.53386 0.249792L7.53386 1.74979L4.1479 1.74979L4.14789 0.249792ZM0.859373 3.55975C0.859373 1.73853 2.3253 0.249792 4.14789 0.249792L4.1479 1.74979C3.16596 1.74979 2.35937 2.55467 2.35937 3.55975L0.859373 3.55975ZM0.859374 6.97431L0.859373 3.55975L2.35937 3.55975L2.35937 6.97431L0.859374 6.97431ZM4.1479 10.2843C2.32548 10.2843 0.859374 8.79667 0.859374 6.97431L2.35937 6.97431C2.35937 7.98016 3.16578 8.78427 4.1479 8.78427L4.1479 10.2843ZM15.6849 8.78427L19.0708 8.78427L19.0708 10.2843L15.6849 10.2843L15.6849 8.78427ZM13.8964 6.97431C13.8964 7.98016 14.7028 8.78427 15.6849 8.78427L15.6849 10.2843C13.8625 10.2843 12.3964 8.79667 12.3964 6.97431L13.8964 6.97431ZM13.8964 3.55975L13.8964 6.97431L12.3964 6.97431L12.3964 3.55975L13.8964 3.55975ZM15.6849 1.74979C14.7029 1.74979 13.8964 2.55467 13.8964 3.55975L12.3964 3.55975C12.3964 1.73853 13.8623 0.249791 15.6849 0.249791L15.6849 1.74979ZM19.0708 1.74979L15.6849 1.74979L15.6849 0.249791L19.0708 0.249791L19.0708 1.74979ZM20.8594 3.55975C20.8594 2.55467 20.0528 1.74979 19.0708 1.74979L19.0708 0.249791C20.8934 0.24979 22.3594 1.73853 22.3594 3.55975L20.8594 3.55975ZM20.8594 6.97431L20.8594 3.55975L22.3594 3.55975L22.3594 6.97431L20.8594 6.97431ZM19.0708 8.78427C20.053 8.78427 20.8594 7.98016 20.8594 6.97431L22.3594 6.97431C22.3594 8.79667 20.8933 10.2843 19.0708 10.2843L19.0708 8.78427Z" fill="white"/>
</g>
</svg>
